<?xml version="1.0" standalone="no"?>
<!DOCTYPE svg PUBLIC "-//W3C//DTD SVG 20010904//EN"
 "http://www.w3.org/TR/2001/REC-SVG-20010904/DTD/svg10.dtd">
<svg version="1.0" xmlns="http://www.w3.org/2000/svg"
 width="512.000000pt" height="512.000000pt" viewBox="0 0 512.000000 512.000000"
 preserveAspectRatio="xMidYMid meet">
<metadata>
Created by potrace 1.11, written by Peter Selinger 2001-2013
</metadata>
<g transform="translate(0.000000,512.000000) scale(0.100000,-0.100000)"
fill="#000000" stroke="none">
<path d="M1340 5109 c-86 -25 -258 -81 -285 -93 -16 -8 -61 -29 -100 -46 -152
-69 -327 -188 -450 -307 -200 -191 -351 -440 -452 -741 -53 -158 -60 -219 -32
-273 33 -65 74 -83 219 -94 47 -4 87 -8 90 -10 3 -2 26 -6 52 -9 25 -4 65 -13
87 -21 23 -8 41 -12 41 -10 0 7 114 -36 173 -67 203 -102 317 -267 353 -508 3
-25 7 -99 9 -166 2 -136 12 -163 73 -204 32 -23 43 -25 116 -21 45 2 146 4
226 4 124 1 160 -3 247 -25 262 -67 456 -226 603 -493 50 -91 51 -92 93 -115
25 -14 55 -22 82 -22 41 1 44 -1 58 -36 l15 -37 23 55 c173 419 449 686 804
774 152 39 297 48 486 32 l75 -6 -1 77 c-1 90 4 135 14 128 16 -9 92 39 111
70 12 19 30 67 41 107 30 108 75 184 154 263 102 102 260 179 430 211 11 2 31
6 45 9 52 11 71 14 137 20 117 10 145 16 175 38 44 32 67 84 63 142 -2 42 -65
258 -83 290 -4 6 -7 15 -8 22 -5 30 -119 249 -172 330 -214 325 -517 552 -907
681 -213 71 -276 75 -335 25 -59 -49 -71 -106 -46 -223 44 -205 55 -276 52
-337 -12 -227 -189 -408 -421 -430 -58 -5 -64 -4 -78 18 -11 19 -61 286 -83
452 -10 73 -76 138 -147 143 -58 4 -114 -25 -162 -86 -55 -70 -114 -110 -161
-110 -46 0 -109 36 -151 87 -60 74 -71 83 -108 99 -73 30 -163 -4 -200 -76
-12 -23 -27 -101 -51 -255 -3 -16 -10 -55 -15 -85 -6 -30 -12 -68 -15 -85 -14
-102 -21 -108 -98 -102 -207 17 -380 171 -417 372 -13 72 -8 135 27 297 39
184 41 235 12 277 -12 19 -35 43 -49 53 -30 23 -109 31 -159 17z"/>
<path d="M3536 2549 c-60 -14 -143 -66 -181 -112 -19 -23 -199 -310 -400 -637
-201 -327 -370 -602 -375 -610 -6 -8 -36 -58 -68 -110 -32 -52 -119 -194 -194
-315 -159 -259 -157 -255 -173 -317 -51 -193 85 -404 283 -438 49 -8 387 -10
1242 -8 l1175 3 66 32 c125 62 199 174 205 311 3 52 -2 89 -14 126 -10 28
-108 196 -217 373 -110 178 -205 331 -210 340 -6 10 -17 29 -26 43 -29 45
-253 410 -274 446 -11 19 -90 147 -175 284 -85 138 -182 295 -216 350 -74 123
-121 172 -201 211 -68 34 -175 46 -247 28z"/>
</g>
</svg>
